<svg xmlns="http://www.w3.org/2000/svg" viewBox="0 0 49.79 49.79"><g id="레이어_2" data-name="레이어 2"><g id="Layer_1" data-name="Layer 1"><path d="M49.79,28.15V21.64H44.54A19.78,19.78,0,0,0,41.1,13.3l3.7-3.71L40.19,5l-3.7,3.7a19.78,19.78,0,0,0-8.34-3.44V0H21.64V5.25A19.78,19.78,0,0,0,13.3,8.69L9.59,5,5,9.59l3.7,3.71a19.78,19.78,0,0,0-3.44,8.34H0v6.51H5.25a19.78,19.78,0,0,0,3.44,8.34L5,40.19l4.6,4.61,3.71-3.7a19.78,19.78,0,0,0,8.34,3.44v5.25h6.51V44.54a19.78,19.78,0,0,0,8.34-3.44l3.7,3.7,4.61-4.61-3.7-3.7a19.78,19.78,0,0,0,3.44-8.34Zm-13.4,3.63a12.94,12.94,0,0,1-4.61,4.61,13,13,0,0,1-3.63,1.5,13.53,13.53,0,0,1-6.51,0,13.45,13.45,0,0,1-6.23-3.51,12.75,12.75,0,0,1-2-2.6,12.9,12.9,0,0,1-1.5-3.63,13.53,13.53,0,0,1,0-6.51,13.34,13.34,0,0,1,9.74-9.74,12.82,12.82,0,0,1,6.51,0,13,13,0,0,1,3.63,1.5,12.75,12.75,0,0,1,2.6,2,13.45,13.45,0,0,1,3.51,6.23,13.53,13.53,0,0,1,0,6.51A12.9,12.9,0,0,1,36.39,31.78Z"/></g></g></svg>