<svg xmlns="http://www.w3.org/2000/svg" viewBox="0 0 49.48 31.35"><defs><style>.cls-1{fill:#231815;}</style></defs><g id="레이어_2" data-name="레이어 2"><g id="Layer_1" data-name="Layer 1"><path class="cls-1" d="M44.88,14.87a28.44,28.44,0,0,0-40.28,0L0,10.26a35,35,0,0,1,49.48,0Z"/><path class="cls-1" d="M12.84,23.11,8.24,18.5a23.32,23.32,0,0,1,33,0l-4.6,4.61a16.8,16.8,0,0,0-23.8,0Z"/><path class="cls-1" d="M28.4,31.35a5.17,5.17,0,0,0-7.32,0l-4.6-4.61a11.68,11.68,0,0,1,16.52,0Z"/><path class="cls-1" d="M12.84,23.11,8.24,18.5a23.32,23.32,0,0,1,33,0l-4.6,4.61a16.8,16.8,0,0,0-23.8,0Z"/><path class="cls-1" d="M28.4,31.35a5.17,5.17,0,0,0-7.32,0l-4.6-4.61a11.68,11.68,0,0,1,16.52,0Z"/></g></g></svg>