<svg xmlns="http://www.w3.org/2000/svg" viewBox="0 0 49.64 49.65"><defs><style>.cls-1{fill:#231815;}</style></defs><g id="레이어_2" data-name="레이어 2"><g id="Layer_1" data-name="Layer 1"><path class="cls-1" d="M12.74,49.65l-.71,0a12.72,12.72,0,0,1-.29-25.38L33.66,2.31A7.83,7.83,0,0,1,39.23,0h0A7.83,7.83,0,0,1,44.8,2.31l2.54,2.54a7.87,7.87,0,0,1,0,11.12l-21.92,22A12.71,12.71,0,0,1,12.74,49.65Zm0-18.93a6.2,6.2,0,1,0,4.41,10.59,6.15,6.15,0,0,0,1.8-4.64l-.06-1.42L42.73,11.37a1.36,1.36,0,0,0,0-1.92L40.19,6.91a1.33,1.33,0,0,0-1-.4,1.34,1.34,0,0,0-1,.4L14.42,30.78,13,30.73Z"/><path class="cls-1" d="M16.35,36.38,29.43,23.31l-3.07-3.07L13.28,33.31a3.59,3.59,0,1,0,3.07,3.07Z"/></g></g></svg>