<svg xmlns="http://www.w3.org/2000/svg" viewBox="0 0 34.56 49.61"><defs><style>.cls-1{fill:#231815;}</style></defs><g id="레이어_2" data-name="레이어 2"><g id="Layer_1" data-name="Layer 1"><path class="cls-1" d="M17.28,22.51A11.26,11.26,0,1,1,28.54,11.26,11.27,11.27,0,0,1,17.28,22.51Zm0-16A4.75,4.75,0,1,0,22,11.26,4.75,4.75,0,0,0,17.28,6.51Z"/><path class="cls-1" d="M34.56,49.61H28.05V33.9a1.35,1.35,0,0,0-1.36-1.35H7.87A1.35,1.35,0,0,0,6.51,33.9V49.61H0V33.9A7.88,7.88,0,0,1,7.87,26H26.69a7.88,7.88,0,0,1,7.87,7.87Z"/></g></g></svg>