<svg xmlns="http://www.w3.org/2000/svg" viewBox="0 0 49.68 47.45"><defs><style>.cls-1{fill:#231815;}</style></defs><g id="레이어_2" data-name="레이어 2"><g id="Layer_1" data-name="Layer 1"><path class="cls-1" d="M24.84,47.45,4.06,23.93c-.18-.2-.44-.5-.95-1.14a16.23,16.23,0,0,1-1.92-3.08A14,14,0,0,1,24.84,5.05a14,14,0,0,1,24.75,7.39h0a14.12,14.12,0,0,1-1.1,7.27,16.72,16.72,0,0,1-1.91,3.08c-.53.66-.79,1-1,1.14ZM14,6.51a7.56,7.56,0,0,0-7.47,6.66,7.46,7.46,0,0,0,.59,3.91,9.79,9.79,0,0,0,1,1.64c.45.56.58.7.59.72l.11.12,16,18.05L40.93,19.4h0s.15-.17.56-.68a10.26,10.26,0,0,0,1-1.65,7.46,7.46,0,0,0,.59-3.91h0A7.54,7.54,0,0,0,29,10.42a4.79,4.79,0,0,1-8.38,0A7.55,7.55,0,0,0,14,6.51Z"/></g></g></svg>